<svg width="89" height="100" viewBox="0 0 89 100" fill="none" xmlns="http://www.w3.org/2000/svg">
<path d="M51.2178 90.5759L49.7089 97.1004H38.4231L36.9142 90.5759H51.2178Z" fill="#3E81C8"/>
<path d="M57.9957 81.5999L56.3184 88.6262H31.8187L30.1414 81.5999H57.9957Z" fill="#3E81C8"/>
<path d="M51.9731 63.9462H36.1639V79.9411H51.9731V63.9462Z" fill="#EB7830"/>
<path d="M53.5817 48.6502L51.9656 62.5924H36.1715L34.5554 48.6502L36.4375 49.6314C36.8314 49.9952 38.6106 50.1835 39.1451 50.1609C39.6796 50.1358 40.1815 49.8999 40.5403 49.5034L44.0685 46.3591L47.5942 49.5034C47.9531 49.8999 48.4575 50.1358 48.992 50.1609C49.0221 50.1609 49.0522 50.1634 49.0823 50.1634C49.5867 50.1634 51.3257 49.9752 51.6971 49.6314L53.5817 48.6502Z" fill="#EB7830"/>
<path d="M68.6631 44.2588C68.6631 47.8296 67.8802 51.255 66.3319 54.4394C62.6807 61.9601 59.288 71.3151 58.9493 79.7893H53.3433V63.3452L55.5842 46.9112C55.7397 45.8146 56.4825 44.7983 55.3834 44.6427C54.7636 44.5549 54.1688 44.7606 53.7423 45.1546L49.2128 49.3227L45.5566 45.2826C45.1752 44.8635 44.6357 44.6226 44.0685 44.6226C43.5014 44.6226 42.9594 44.8635 42.5805 45.2826L38.9218 49.3227L34.3948 45.1521C33.5792 44.4018 33.5642 44.4545 32.8114 45.27C32.3873 45.7318 32.2191 46.3365 32.302 46.9112L34.7938 63.3452V79.7893H29.1853C28.8992 72.7454 26.5881 63.8923 21.9758 54.7857C20.3271 51.5285 19.484 48.0128 19.4739 44.334C19.4338 31.6014 31.0096 19.8423 43.7348 19.6667C56.7611 19.4885 68.6631 31.2776 68.6631 44.2588Z" fill="#F5C525"/>
<path d="M44.0685 16.9038C43.938 16.9038 43.8101 16.9038 43.6796 16.9063C28.7637 17.1121 16.6659 29.4232 16.7136 44.3466C16.7261 48.6577 17.7148 52.7782 19.6496 56.6C24.292 65.7718 26.4551 73.2147 26.4551 80.0277V80.5421C26.4551 80.7429 26.4877 80.9386 26.5429 81.1218C26.5429 81.1218 26.5429 81.1218 26.5429 81.1243V81.1268C26.5454 81.1343 26.5479 81.1394 26.5504 81.1469L29.3133 90.266C29.5692 91.1117 30.3496 91.6914 31.233 91.6914H33.8001L35.8553 98.5671C36.1087 99.4178 36.8916 100 37.7775 100H50.3596C51.2454 100 52.0283 99.4178 52.2818 98.5671L54.337 91.6914H56.9041C57.7874 91.6914 58.5678 91.1117 58.8238 90.266L61.5891 81.1469C61.5891 81.1394 61.5916 81.1343 61.5942 81.1268V81.1243C61.5942 81.1218 61.5942 81.1218 61.5942 81.1218C61.6494 80.9386 61.682 80.7429 61.682 80.5421V79.9123C61.682 71.7492 65.0496 63.689 68.6882 56.1934C70.505 52.457 71.4235 48.4419 71.4235 44.2588C71.4235 29.1748 59.1525 16.9038 44.0685 16.9038ZM48.864 95.985H39.2731L37.9908 91.6914H50.1463L48.864 95.985ZM55.4135 87.6763H32.7235L31.1702 82.5497H56.9668L55.4135 87.6763ZM37.4261 61.3377L35.8101 49.9049L37.6921 51.6389C38.0861 52.0028 38.6106 52.191 39.1451 52.1684C39.6796 52.1433 40.1815 51.9074 40.5403 51.5109L44.0685 47.6138L47.5942 51.5109C47.9531 51.9074 48.4575 52.1433 48.992 52.1684C49.0221 52.1684 49.0522 52.1709 49.0823 52.1709C49.5867 52.1709 50.071 51.9827 50.4424 51.6389L52.327 49.9049L50.7109 61.3377H37.4261ZM50.5829 65.3527V78.5346H37.5541V65.3527H50.5829ZM65.0772 54.4394C61.426 61.96 58.0333 70.0604 57.6946 78.5346H54.598V63.3452L57.0898 44.9037C57.2454 43.8071 56.4825 42.7908 55.3834 42.6352C54.7636 42.5473 54.1688 42.7531 53.7423 43.1471L49.2128 47.3152L45.5566 43.2751C45.1752 42.856 44.6356 42.6151 44.0685 42.6151C43.5014 42.6151 42.9594 42.856 42.5805 43.2751L38.9217 47.3152L34.3948 43.1446C33.5792 42.3943 32.3095 42.447 31.5567 43.2625C31.1326 43.7242 30.9644 44.329 31.0473 44.9037L33.5391 63.3452V78.5346H30.44C30.1539 71.4907 27.8428 63.8923 23.2305 54.7857C21.5818 51.5285 20.7387 48.0128 20.7286 44.334C20.6885 31.6013 31.0096 21.097 43.7348 20.9214C56.7611 20.7432 67.4084 31.2776 67.4084 44.2588C67.4084 47.8296 66.6255 51.255 65.0772 54.4394Z" fill="#231F20"/>
<path d="M11.0326 44.0686C11.0326 42.9599 10.1337 42.061 9.02505 42.061H2.00752C0.898866 42.061 0 42.9599 0 44.0686C0 45.1772 0.898866 46.0761 2.00752 46.0761H9.02505C10.134 46.0761 11.0326 45.1772 11.0326 44.0686Z" fill="#231F20"/>
<path d="M86.1295 42.061H79.112C78.0034 42.061 77.1045 42.9599 77.1045 44.0686C77.1045 45.1772 78.0034 46.0761 79.112 46.0761H86.1295C87.2382 46.0761 88.1371 45.1772 88.1371 44.0686C88.1371 42.9599 87.2384 42.061 86.1295 42.061Z" fill="#231F20"/>
<path d="M14.7236 24.8082L8.64637 21.2993C7.68602 20.7447 6.45842 21.0739 5.9041 22.034C5.34977 22.9941 5.67875 24.222 6.63885 24.7763L12.7161 28.2852C13.0323 28.4679 13.3773 28.5545 13.7181 28.5545C14.412 28.5545 15.0867 28.1944 15.4586 27.5505C16.013 26.5904 15.684 25.3628 14.7236 24.8082Z" fill="#231F20"/>
<path d="M81.4982 63.3606L75.4207 59.8517C74.4603 59.2973 73.2327 59.6263 72.6784 60.5864C72.1241 61.5465 72.4531 62.7744 73.4132 63.3287L79.4907 66.8376C79.8069 67.0203 80.1519 67.1068 80.4927 67.1068C81.1865 67.1068 81.8613 66.7467 82.2332 66.1028C82.7873 65.1427 82.4583 63.9149 81.4982 63.3606Z" fill="#231F20"/>
<path d="M24.8081 14.7236C25.18 15.3676 25.8548 15.7277 26.5487 15.7277C26.8892 15.7277 27.2345 15.6408 27.5507 15.4584C28.5108 14.9041 28.8397 13.6762 28.2854 12.7161L24.7768 6.63887C24.2225 5.67877 22.9944 5.35029 22.0345 5.90412C21.0744 6.45844 20.7454 7.68629 21.2998 8.64639L24.8081 14.7236Z" fill="#231F20"/>
<path d="M44.0686 11.0326C45.1772 11.0326 46.0761 10.1337 46.0761 9.02505V2.00752C46.0761 0.898866 45.1772 0 44.0686 0C42.9599 0 42.061 0.898866 42.061 2.00752V9.02505C42.061 10.134 42.9597 11.0326 44.0686 11.0326Z" fill="#231F20"/>
<path d="M60.5866 15.4587C60.9028 15.6414 61.2479 15.7279 61.5886 15.7279C62.2825 15.7279 62.9573 15.3678 63.3292 14.7239L66.8378 8.64666C67.3921 7.68657 67.0631 6.45872 66.103 5.90439C65.1429 5.34981 63.9151 5.67905 63.3608 6.63914L59.8521 12.7164C59.2973 13.6762 59.6263 14.9043 60.5866 15.4587Z" fill="#231F20"/>
<path d="M74.4189 28.5547C74.7595 28.5547 75.1048 28.4678 75.4209 28.2854L81.4985 24.7765C82.4585 24.2222 82.7875 22.9943 82.2332 22.0342C81.6789 21.0739 80.4508 20.7457 79.4909 21.2995L73.4132 24.8081C72.4531 25.3625 72.1241 26.5903 72.6784 27.5504C73.0503 28.1946 73.7251 28.5547 74.4189 28.5547Z" fill="#231F20"/>
<path d="M12.7161 59.8516L6.63884 63.3605C5.6785 63.9148 5.34976 65.1427 5.90409 66.1028C6.27598 66.7469 6.95076 67.1068 7.64461 67.1068C7.98513 67.1068 8.33043 67.02 8.64661 66.8375L14.7239 63.3286C15.684 62.7743 16.0129 61.5465 15.4586 60.5864C14.904 59.626 13.6762 59.2978 12.7161 59.8516Z" fill="#231F20"/>
</svg>
