<svg width="66" height="100" viewBox="0 0 66 100" fill="none" xmlns="http://www.w3.org/2000/svg">
<path d="M57.2369 17.1744H44.0144V19.0185C44.0144 20.5498 42.7795 21.8013 41.2316 21.8013H24.3372C22.8059 21.8013 21.5545 20.5664 21.5545 19.0185V17.1744H8.33201C6.80067 17.1744 5.54926 18.4092 5.54926 19.9571V91.6681C5.54926 93.1994 6.78411 94.4508 8.33201 94.4508H57.2206C58.7519 94.4508 60.0033 93.216 60.0033 91.6681V19.9574C60.0033 18.4423 58.7682 17.1744 57.2369 17.1744Z" fill="white"/>
<path d="M48.8885 22.7235H16.6636C13.601 22.7235 11.1144 25.21 11.1144 28.2727V83.3197C11.1144 86.3824 13.601 88.8689 16.6636 88.8689H48.8883C51.951 88.8689 54.4375 86.3824 54.4375 83.3197V28.2727C54.4375 25.21 51.9512 22.7235 48.8885 22.7235Z" fill="#FFC10D"/>
<path d="M47.8017 71.8757H17.7505C16.2192 71.8757 14.9678 70.6406 14.9678 69.093C14.9678 67.5616 16.2026 66.3102 17.7505 66.3102H47.818C49.3493 66.3102 50.6008 67.5451 50.6008 69.093C50.5845 70.6406 49.333 71.8757 47.8017 71.8757Z" fill="#194F82"/>
<path d="M47.8017 83.9291H17.7505C16.2192 83.9291 14.9678 82.6942 14.9678 81.1463C14.9678 79.615 16.2026 78.3636 17.7505 78.3636H47.818C49.3493 78.3636 50.6008 79.5984 50.6008 81.1463C50.5845 82.6777 49.333 83.9291 47.8017 83.9291Z" fill="#194F82"/>
<path d="M21.4718 58.5873H44.0803C45.6116 58.5873 46.863 57.3524 46.863 55.8045V30.9898C46.863 29.4584 45.6282 28.207 44.0803 28.207H21.4718C19.9405 28.207 18.6891 29.4419 18.6891 30.9898V55.8045C18.6891 57.3524 19.9239 58.5873 21.4718 58.5873ZM24.2546 33.7725H41.3138V53.0381H24.2546V33.7725Z" fill="#194F82"/>
<path d="M41.3139 33.7726H24.2547V53.0381H41.3139V33.7726Z" fill="#56ACE0"/>
<path d="M57.2368 11.6252H44.0143V2.78275C44.0143 1.25141 42.7795 0 41.2316 0H24.3372C22.8058 0 21.5544 1.23485 21.5544 2.78275V11.6252H8.33195C3.73793 11.6252 0 15.3631 0 19.9571V91.668C0 96.2621 3.73793 100 8.33195 100H57.2205C61.8145 100 65.5525 96.2621 65.5525 91.668V19.9574C65.5525 15.3631 61.8145 11.6252 57.2368 11.6252ZM27.1199 5.56576H38.4651V16.2525H27.1199V5.56576ZM60.0033 91.6683C60.0033 93.1996 58.7684 94.4511 57.2205 94.4511H8.3317C6.80036 94.4511 5.54895 93.2162 5.54895 91.6683V19.9574C5.54895 18.426 6.7838 17.1746 8.3317 17.1746H21.5542V19.0187C21.5542 20.5501 22.789 21.8015 24.3369 21.8015H41.2313C42.7627 21.8015 44.0141 20.5666 44.0141 19.0187V17.1746H57.2366C58.7679 17.1746 60.0193 18.4095 60.0193 19.9574L60.0033 91.6683Z" fill="#194F82"/>
<path d="M38.4489 5.56573H27.1199V16.2525H38.4489V5.56573Z" fill="#56ACE0"/>
</svg>
