<svg width="95" height="39" viewBox="0 0 95 39" fill="none" xmlns="http://www.w3.org/2000/svg">
<path d="M80.9762 28.5103C87.0833 23.9379 95 17.6172 95 6.72414C95 5.91724 94.0952 5.37931 92.7381 5.37931C91.381 5.37931 90.4762 5.91724 90.4762 6.72414C90.4762 15.7345 84.8214 21.1138 79.1667 25.4172C77.8095 22.8621 76.9048 19.769 76.9048 16.1379C76.9048 15.4655 76 14.7931 74.6429 14.7931C73.5119 14.7931 72.381 15.331 72.381 16.1379C72.1548 18.4241 71.0238 20.9793 70.119 21.2483C69.2143 21.2483 68.0833 19.3655 67.8571 17.4828C67.8571 16.8103 66.7262 16.2724 65.5952 16.2724C64.4643 16.2724 63.3333 16.6759 63.3333 17.4828C62.6548 19.769 60.8452 22.9966 58.8095 22.9966C57.9048 22.9966 57.4524 22.8621 57.2262 22.5931C56.5476 22.1897 56.3214 21.2483 56.3214 20.4414C56.3214 19.9034 56.5476 19.3655 56.5476 18.8276C56.5476 18.1552 55.6429 17.4828 54.5119 17.4828C53.381 17.4828 52.25 17.8862 52.0238 18.5586C52.0238 18.6931 51.7976 19.231 51.7976 20.0379C51.3452 22.3241 49.9881 26.8966 45.2381 26.8966C43.6548 26.8966 42.75 26.6276 42.0714 25.9552C40.9405 24.8793 40.9405 23.131 42.0714 21.5172V21.3828C42.2976 21.2483 42.2976 20.9793 42.5238 20.8448C44.3333 18.6931 46.369 17.4828 49.7619 17.4828C51.119 17.4828 52.0238 16.9448 52.0238 16.1379C52.0238 15.331 51.119 14.7931 49.7619 14.7931C40.2619 14.7931 37.5476 20.3069 34.8333 25.5517C31.6667 32.0069 28.7262 36.3103 20.3571 36.3103C8.82143 36.3103 4.52381 27.4345 4.52381 21.5172C4.52381 9.95172 15.1548 2.68966 24.881 2.68966C31.4405 2.68966 33.9286 5.78276 34.1548 5.91724C34.6071 6.58965 35.9643 6.85862 37.0952 6.58966C38.2262 6.32069 38.6786 5.51379 38.2262 4.84138C38 4.57241 34.381 0 24.881 0C12.6667 0 0 8.06896 0 21.5172C0 35.369 13.3452 39 20.3571 39C31.8929 39 35.7381 32.9483 38.6786 27.569C40.2619 28.7793 42.5238 29.5862 45.2381 29.5862C50.2143 29.5862 53.1548 27.4345 54.7381 24.7448C55.869 25.2828 57.2262 25.5517 58.8095 25.5517C61.9762 25.5517 64.2381 23.9379 65.5952 22.3241C66.5 23.2655 68.0833 23.9379 70.119 23.9379C71.4762 23.9379 72.6071 23.5345 73.5119 22.9966C74.1905 24.8793 75.0952 26.6276 75.7738 28.1069C72.6071 30.5276 70.119 32.5448 70.119 34.9655C70.119 37.2517 73.0595 39 76.9048 39C80.9762 39 83.6905 36.8483 83.6905 34.9655C83.6905 33.2172 82.5595 31.3345 81.2024 29.1828C81.2024 28.9138 80.9762 28.7793 80.9762 28.5103ZM76.9048 36.3103C75.3214 36.3103 74.6429 35.6379 74.6429 34.9655C74.6429 33.7552 75.7738 32.5448 77.5833 31.0655C78.4881 32.6793 79.1667 33.8897 79.1667 34.9655C79.1667 35.369 78.4881 36.3103 76.9048 36.3103Z" fill="#1565C0"/>
</svg>
