<svg width="92" height="100" viewBox="0 0 92 100" fill="none" xmlns="http://www.w3.org/2000/svg">
<path fill-rule="evenodd" clip-rule="evenodd" d="M56.369 17.7509C57.421 22.8804 61.6037 25.873 65.7112 24.4352C69.8187 22.9973 80.5403 9.2896 80.5403 9.2896C80.5403 9.2896 66.0089 4.42188 61.9014 5.85975C57.7939 7.29762 55.3169 12.6215 56.369 17.7509Z" fill="#80D25B"/>
<path fill-rule="evenodd" clip-rule="evenodd" d="M36.3807 17.7491C35.3286 22.8785 31.146 25.8711 27.0384 24.4333C22.9309 22.9954 12.2093 9.2877 12.2093 9.2877C12.2093 9.2877 26.7407 4.41999 30.8483 5.85786C34.9558 7.29573 37.4327 12.6196 36.3807 17.7491Z" fill="#80D25B"/>
<path d="M59 18C51.8203 18 46 26.9543 46 38" stroke="#22BA8E" stroke-linecap="round"/>
<path d="M27.968 15.385C37.7236 15.385 45.632 25.7169 45.632 38.4618" stroke="#22BA8E" stroke-linecap="round"/>
<path fill-rule="evenodd" clip-rule="evenodd" d="M73.968 91.9231V59.6156H18.032V91.9231C18.032 96.3839 30.5537 100 46 100C61.4463 100 73.968 96.3839 73.968 91.9231Z" fill="#0A3586"/>
<path d="M84.272 61.5386H81.328V92.3077H84.272V61.5386Z" fill="#ED5144"/>
<path d="M82.8 100C85.2389 100 87.216 97.4171 87.216 94.2308C87.216 91.0446 85.2389 88.4616 82.8 88.4616C80.3611 88.4616 78.384 91.0446 78.384 94.2308C78.384 97.4171 80.3611 100 82.8 100Z" fill="#D3D824"/>
<path fill-rule="evenodd" clip-rule="evenodd" d="M0 59.6002L46.3916 36.5388L92 59.6002L46.3916 78.7443L0 59.6002Z" fill="#325AA6"/>
</svg>
