<svg width="68" height="100" viewBox="0 0 68 100" fill="none" xmlns="http://www.w3.org/2000/svg">
<path d="M50.5274 100L33.9662 89.557L17.4051 100V30.0633H50.5274V100Z" fill="#285FFF"/>
<path d="M33.9662 67.9325C52.7253 67.9325 67.9325 52.7253 67.9325 33.9662C67.9325 15.2072 52.7253 0 33.9662 0C15.2072 0 0 15.2072 0 33.9662C0 52.7253 15.2072 67.9325 33.9662 67.9325Z" fill="#FFC54D"/>
<path d="M33.9662 60.654C48.7055 60.654 60.654 48.7055 60.654 33.9663C60.654 19.227 48.7055 7.2785 33.9662 7.2785C19.227 7.2785 7.27847 19.227 7.27847 33.9663C7.27847 48.7055 19.227 60.654 33.9662 60.654Z" fill="#E8B04B"/>
<path d="M35.2321 18.038L39.6624 26.8987C39.8734 27.3207 40.2953 27.6371 40.7173 27.7426L50.5274 29.2194C51.6877 29.4304 52.2152 30.8017 51.3713 31.6456L44.3038 38.6076C43.9873 38.924 43.7764 39.4515 43.8818 39.8734L45.5696 49.6835C45.7806 50.8439 44.5148 51.7932 43.4599 51.1603L34.7046 46.519C34.2827 46.308 33.7553 46.308 33.3333 46.519L24.4726 51.1603C23.4177 51.6878 22.1519 50.8439 22.3629 49.6835L24.0506 39.8734C24.1561 39.4515 23.9451 38.924 23.6287 38.6076L16.5612 31.6456C15.7173 30.8017 16.1392 29.3249 17.405 29.2194L27.2152 27.7426C27.6371 27.6371 28.0591 27.4261 28.27 26.8987L32.7004 18.038C33.2278 16.9831 34.7046 16.9831 35.2321 18.038Z" fill="white"/>
</svg>
