<svg width="77" height="77" viewBox="0 0 77 77" fill="none" xmlns="http://www.w3.org/2000/svg">
<path d="M39.6111 38.6664C39.6111 31.7158 45.2659 26.0611 52.2163 26.061L57.2982 26.061C64.2488 26.061 69.9035 31.7157 69.9036 38.6664C69.9037 45.617 64.2489 51.2717 57.2982 51.2717L52.2163 51.2717C45.2659 51.2717 39.6111 45.6169 39.6111 38.6664ZM63.3577 38.6664C63.3577 35.3252 60.6394 32.6068 57.2982 32.6068L52.2163 32.6068C48.875 32.6068 46.1568 35.3251 46.1569 38.6662C46.1569 42.0075 48.8752 44.7258 52.2163 44.7256H57.2982C60.6395 44.7258 63.3578 42.0075 63.3577 38.6664Z" fill="#FF8C00"/>
<path d="M25.1156 51.2716L20.0338 51.2716C13.0832 51.2716 7.42848 45.6169 7.4284 38.6663C7.42833 31.7156 13.0831 26.061 20.0338 26.0609L25.1156 26.0609C32.0661 26.0609 37.7208 31.7157 37.7209 38.6663C37.7209 45.6169 32.0661 51.2716 25.1156 51.2716ZM20.0338 44.7257L25.1156 44.7257C28.4569 44.7257 31.1751 42.0075 31.175 38.6664C31.175 35.3251 28.4567 32.6068 25.1156 32.607L20.0338 32.6068C16.6925 32.6068 13.9742 35.3251 13.9742 38.6664C13.9742 42.0076 16.6925 44.7258 20.0338 44.7257Z" fill="#FF8C00"/>
<path opacity="0.1" d="M52.2163 44.7259C48.8751 44.7259 46.1568 42.0076 46.1569 38.6665C46.1569 35.3253 48.8752 32.607 52.2163 32.6071L55.1778 32.6072C54.2282 32.1076 53.1485 31.8234 52.003 31.8232L41.6353 31.8232C40.3554 33.7953 39.611 36.1455 39.611 38.6666C39.611 41.1876 40.3554 43.5379 41.6353 45.5099L52.003 45.5099C53.1483 45.5099 54.2282 45.2256 55.1777 44.7261L52.2163 44.7259Z" fill="black"/>
<path opacity="0.1" d="M25.1155 32.6069C28.4567 32.6069 31.1749 35.3251 31.1749 38.6663C31.1749 42.0075 28.4565 44.7258 25.1155 44.7257L22.154 44.7257C23.1036 45.2252 24.1833 45.5095 25.3287 45.5095H35.6964C36.9762 43.5374 37.7207 41.1872 37.7207 38.6662C37.7207 36.1451 36.9762 33.7949 35.6964 31.8228H25.3287C24.1832 31.8228 23.1035 32.1071 22.1539 32.6067L25.1155 32.6069Z" fill="black"/>
<path d="M22.0559 38.6663C22.0559 36.8586 23.5213 35.3934 25.3289 35.3934L52.003 35.3934C53.8105 35.3934 55.2759 36.8586 55.2759 38.6663C55.2759 40.474 53.8105 41.9393 52.003 41.9393L25.3289 41.9393C23.5212 41.9392 22.0558 40.4739 22.0559 38.6663Z" fill="#C04000"/>
<path d="M65.2995 27.8008C64.9029 27.5081 64.3439 27.5913 64.0512 27.9889C63.7584 28.3854 63.8427 28.9444 64.2392 29.237C67.2275 31.443 69.0116 34.9676 69.0117 38.6654C69.0116 45.124 63.7574 50.3781 57.2989 50.3781H52.217C47.3285 50.3781 42.9828 47.3282 41.27 42.831H46.6558C47.9686 44.5846 50.0126 45.6175 52.2171 45.6176L57.2989 45.6175C59.2157 45.6175 60.9536 44.8381 62.2126 43.5789C63.4712 42.3201 64.2511 40.5818 64.2511 38.6654C64.251 34.832 61.1323 31.7133 57.2989 31.7132L52.2171 31.7133C50.0127 31.7133 47.9685 32.7458 46.6558 34.4999H41.27C42.9828 30.0027 47.3286 26.9526 52.2172 26.9528L57.299 26.9527C58.6254 26.9527 59.9288 27.1745 61.1731 27.612C61.638 27.7755 62.1478 27.5312 62.3112 27.0659C62.4748 26.6009 62.2303 26.0913 61.7653 25.9277C60.3305 25.4232 58.8278 25.1674 57.299 25.1674L52.2173 25.1676C46.3566 25.1674 41.1747 28.9719 39.3801 34.4999H37.9538C36.159 28.9719 30.9771 25.1676 25.1165 25.1676L20.0347 25.1676C12.592 25.1676 6.53673 31.2226 6.53673 38.6655C6.53636 42.4546 8.14937 46.0944 10.9617 48.6517C11.3264 48.9834 11.8895 48.9569 12.2227 48.5917C12.5544 48.2271 12.5275 47.6625 12.1628 47.3308C9.72165 45.1112 8.32173 41.9527 8.32173 38.6654C8.32166 32.2069 13.5758 26.9526 20.0344 26.9527L25.1163 26.9527C30.0048 26.9527 34.3506 30.0027 36.0634 34.4998H30.6776C29.3646 32.7461 27.3206 31.7132 25.1162 31.7132L20.0343 31.7132C16.201 31.7132 13.0823 34.8321 13.0821 38.6654C13.0822 40.52 13.8062 42.265 15.1205 43.5794C16.4348 44.8937 18.18 45.6175 20.0344 45.6177L25.1162 45.6176C27.3207 45.6177 29.3646 44.5852 30.6776 42.831L36.0634 42.831C34.3506 47.3283 30.0046 50.3784 25.1161 50.3781L20.0344 50.3781C18.2592 50.3781 16.5533 49.9894 14.9638 49.2228C14.5198 49.0086 13.9865 49.195 13.7721 49.6389C13.5579 50.0829 13.7441 50.6166 14.1883 50.8308C16.0215 51.7152 17.9884 52.1635 20.0344 52.1636L25.1162 52.1635C28.787 52.1636 32.1917 50.6716 34.6651 48.1983C36.1406 46.7228 37.2829 44.8967 37.9536 42.8312L39.3796 42.8312C41.1744 48.3592 46.3563 52.1636 52.2169 52.1637L57.2988 52.1637C61.0201 52.1635 64.3947 50.6498 66.8388 48.2057C69.2829 45.7616 70.7967 42.3869 70.7967 38.6657C70.7969 34.4035 68.7417 30.3419 65.2995 27.8008ZM25.3296 41.0458C24.6939 41.0458 24.096 40.7982 23.6464 40.3486C23.1969 39.8991 22.9494 39.3013 22.9493 38.6655C22.9491 38.0297 23.1968 37.432 23.6464 36.9824C24.096 36.5328 24.6937 36.2851 25.3296 36.2852H52.0037C52.6393 36.2852 53.2372 36.5328 53.6868 36.9824C54.1364 37.432 54.3838 38.0297 54.384 38.6655C54.3838 39.3013 54.1364 39.899 53.6867 40.3487C53.2371 40.7984 52.6395 41.0459 52.0036 41.0459L25.3296 41.0458ZM52.2171 33.4986L57.299 33.4985C60.148 33.4985 62.4659 35.8165 62.4658 38.6654C62.466 41.5145 60.1481 43.8324 57.2988 43.8323L52.2171 43.8325C51.0992 43.8324 50.0373 43.4733 49.1647 42.8311H52.0037C53.1162 42.8311 54.1624 42.3978 54.9492 41.611C55.736 40.8242 56.1691 39.7782 56.1693 38.6655C56.1693 37.5528 55.736 36.5068 54.9492 35.72C54.1624 34.9332 53.1164 34.5001 52.0037 34.4999H49.1644C50.0372 33.8576 51.0992 33.4986 52.2171 33.4986ZM25.1163 43.8323L20.0344 43.8323C18.6568 43.8324 17.3601 43.2942 16.383 42.317C15.4058 41.3398 14.8676 40.0431 14.8676 38.6656C14.8674 35.8165 17.1852 33.4986 20.0345 33.4986L25.1164 33.4986C26.2342 33.4986 27.2961 33.8577 28.1687 34.4999L25.3294 34.4999C24.2169 34.4999 23.1708 34.9332 22.3839 35.72C21.5971 36.5068 21.164 37.5528 21.1638 38.6655C21.1638 39.7782 21.5971 40.8242 22.3839 41.611C23.1708 42.3978 24.2168 42.831 25.3294 42.8311L28.1684 42.8311C27.2962 43.4732 26.2341 43.8324 25.1163 43.8323Z" fill="black"/>
</svg>
